<?xml version="1.0" encoding="utf-8"?>
<svg viewBox="0 0 500 500" xmlns="http://www.w3.org/2000/svg" xmlns:bx="https://boxy-svg.com">
  <defs>
    <style bx:fonts="Alfa Slab One">@import url(https://fonts.googleapis.com/css2?family=Alfa+Slab+One%3Aital%2Cwght%400%2C400&amp;display=swap);</style>
  </defs>
  <g>
    <g transform="matrix(1, 0, 0, 1, 1050.175049, 152.041199)" bx:origin="0.498272 0.5">
      <g>
        <rect x="-687.359" y="-42.788" width="813.283" height="135.362" rx="21" ry="21" style="stroke: rgb(0, 0, 0); stroke-opacity: 0;"/>
        <rect x="-802.751" y="79.26" width="1294.819" height="224.125" rx="21" ry="21" style="stroke: rgb(0, 0, 0); stroke-opacity: 0;"/>
        <rect x="-569.75" y="230.155" width="161.991" height="146.457" rx="21" ry="21" style="stroke: rgb(0, 0, 0); stroke-opacity: 0;"/>
      </g>
      <g style="" transform="matrix(0.354314, 0, 0, 0.354314, -452.739166, -166.932785)">
        <polyline vector-effect="none" points="-277.913 1452.858 -248.556 1482.214" style="paint-order: stroke; fill-rule: evenodd; fill: rgb(255, 255, 255); fill-opacity: 0; stroke: rgb(255, 255, 255); stroke-width: 28.2236px;" stroke-opacity="1" stroke-linecap="round" stroke-linejoin="bevel" font-family="Arial" font-size="12" font-weight="400" font-style="normal" fill-rule="evenodd"/>
        <polyline vector-effect="none" points="44.996 1482.214 74.352 1452.858" style="paint-order: stroke; fill-rule: evenodd; fill: rgb(255, 255, 255); fill-opacity: 0; stroke: rgb(255, 255, 255); stroke-width: 28.2236px;" stroke-opacity="1" stroke-linecap="round" stroke-linejoin="bevel" font-family="Arial" font-size="12" font-weight="400" font-style="normal" fill-rule="evenodd"/>
        <polyline vector-effect="none" points="101.708 953.966 -75.369 718.978" style="paint-order: stroke; fill-rule: evenodd; fill: rgb(255, 255, 255); fill-opacity: 0; stroke: rgb(255, 255, 255); stroke-width: 28.2236px;" stroke-opacity="1" stroke-linecap="round" stroke-linejoin="bevel" font-family="Arial" font-size="12" font-weight="400" font-style="normal" fill-rule="evenodd"/>
        <polyline vector-effect="none" points="-128.195 718.978 -305.272 953.966" style="paint-order: stroke; fill-rule: evenodd; fill: rgb(255, 255, 255); fill-opacity: 0; stroke: rgb(255, 255, 255); stroke-width: 28.2236px;" stroke-opacity="1" stroke-linecap="round" stroke-linejoin="bevel" font-family="Arial" font-size="12" font-weight="400" font-style="normal" fill-rule="evenodd"/>
        <polyline vector-effect="none" points="101.599 953.82 101.599 1188.662" style="paint-order: stroke; fill-rule: evenodd; fill: rgb(255, 255, 255); fill-opacity: 0; stroke: rgb(255, 255, 255); stroke-width: 28.2236px;" stroke-opacity="1" stroke-linecap="round" stroke-linejoin="bevel" font-family="Arial" font-size="12" font-weight="400" font-style="normal" fill-rule="evenodd"/>
        <polyline vector-effect="none" points="-227.554 1247.372 23.894 1247.372" style="paint-order: stroke; fill-rule: evenodd; fill: rgb(255, 255, 255); fill-opacity: 0; stroke: rgb(255, 255, 255); stroke-width: 28.2236px;" stroke-opacity="1" stroke-linecap="round" stroke-linejoin="bevel" font-family="Arial" font-size="12" font-weight="400" font-style="normal" fill-rule="evenodd"/>
        <polyline vector-effect="none" points="-277.913 1328.1 -277.913 1335.438" style="paint-order: stroke; fill-rule: evenodd; fill: rgb(255, 255, 255); fill-opacity: 0; stroke: rgb(255, 255, 255); stroke-width: 28.2236px;" stroke-opacity="1" stroke-linecap="round" stroke-linejoin="bevel" font-family="Arial" font-size="12" font-weight="400" font-style="normal" fill-rule="evenodd"/>
        <polyline vector-effect="none" points="74.352 1364.792 74.352 1247.372" style="paint-order: stroke; fill-rule: evenodd; fill: rgb(255, 255, 255); fill-opacity: 0; stroke: rgb(255, 255, 255); stroke-width: 28.2236px;" stroke-opacity="1" stroke-linecap="round" stroke-linejoin="bevel" font-family="Arial" font-size="12" font-weight="400" font-style="normal" fill-rule="evenodd"/>
        <polyline vector-effect="none" points="-203.47 1188.662 -0.091 1188.662" style="paint-order: stroke; fill-rule: evenodd; fill: rgb(255, 255, 255); fill-opacity: 0; stroke: rgb(255, 255, 255); stroke-width: 28.2236px;" stroke-opacity="1" stroke-linecap="round" stroke-linejoin="bevel" font-family="Arial" font-size="12" font-weight="400" font-style="normal" fill-rule="evenodd"/>
        <polyline vector-effect="none" points="-305.16 1188.662 -305.16 953.82" style="paint-order: stroke; fill-rule: evenodd; fill: rgb(255, 255, 255); fill-opacity: 0; stroke: rgb(255, 255, 255); stroke-width: 28.2236px;" stroke-opacity="1" stroke-linecap="round" stroke-linejoin="bevel" font-family="Arial" font-size="12" font-weight="400" font-style="normal" fill-rule="evenodd"/>
        <polyline vector-effect="none" points="-203.47 953.82 -203.47 1188.662" style="paint-order: stroke; fill-rule: evenodd; fill: rgb(255, 255, 255); fill-opacity: 0; stroke: rgb(255, 255, 255); stroke-width: 28.2236px;" stroke-opacity="1" stroke-linecap="round" stroke-linejoin="bevel" font-family="Arial" font-size="12" font-weight="400" font-style="normal" fill-rule="evenodd"/>
        <polyline vector-effect="none" points="-0.091 1188.662 101.599 1188.662" style="paint-order: stroke; fill-rule: evenodd; fill: rgb(255, 255, 255); fill-opacity: 0; stroke: rgb(255, 255, 255); stroke-width: 28.2236px;" stroke-opacity="1" stroke-linecap="round" stroke-linejoin="bevel" font-family="Arial" font-size="12" font-weight="400" font-style="normal" fill-rule="evenodd"/>
        <polyline vector-effect="none" points="-305.16 1188.662 -203.47 1188.662" style="paint-order: stroke; fill-rule: evenodd; fill: rgb(255, 255, 255); fill-opacity: 0; stroke: rgb(255, 255, 255); stroke-width: 28.2236px;" stroke-opacity="1" stroke-linecap="round" stroke-linejoin="bevel" font-family="Arial" font-size="12" font-weight="400" font-style="normal" fill-rule="evenodd"/>
        <polyline vector-effect="none" points="-248.556 1188.662 -248.556 1247.372" style="paint-order: stroke; fill-rule: evenodd; fill: rgb(255, 255, 255); fill-opacity: 0; stroke: rgb(255, 255, 255); stroke-width: 28.2236px;" stroke-opacity="1" stroke-linecap="round" stroke-linejoin="bevel" font-family="Arial" font-size="12" font-weight="400" font-style="normal" fill-rule="evenodd"/>
        <polyline vector-effect="none" points="44.996 1247.372 44.996 1188.662" style="paint-order: stroke; fill-rule: evenodd; fill: rgb(255, 255, 255); fill-opacity: 0; stroke: rgb(255, 255, 255); stroke-width: 28.2236px;" stroke-opacity="1" stroke-linecap="round" stroke-linejoin="bevel" font-family="Arial" font-size="12" font-weight="400" font-style="normal" fill-rule="evenodd"/>
        <polyline vector-effect="none" points="-0.091 953.82 -0.091 1188.662" style="paint-order: stroke; fill-rule: evenodd; fill: rgb(255, 255, 255); fill-opacity: 0; stroke: rgb(255, 255, 255); stroke-width: 28.2236px;" stroke-opacity="1" stroke-linecap="round" stroke-linejoin="bevel" font-family="Arial" font-size="12" font-weight="400" font-style="normal" fill-rule="evenodd"/>
        <polyline vector-effect="none" points="-245.838 1354.337 -245.207 1355.132 -244.608 1355.943 -244.067 1356.782 -243.828 1357.217 -243.617 1357.665 -243.43 1358.127 -243.278 1358.603 -243.157 1359.09 -243.064 1359.588 -242.998 1360.091 -242.961 1360.594 -242.967 1361.604 -243.07 1362.592 -243.265 1363.539 -243.542 1364.434 -243.896 1365.261 -244.316 1366.006 -244.791 1366.68 -245.3 1367.302 -245.829 1367.901" style="paint-order: stroke; fill-rule: evenodd; fill: rgb(255, 255, 255); fill-opacity: 0; stroke: rgb(255, 255, 255); stroke-width: 28.2236px;" stroke-opacity="1" stroke-linecap="round" stroke-linejoin="bevel" font-family="Arial" font-size="12" font-weight="400" font-style="normal" fill-rule="evenodd"/>
        <polyline vector-effect="none" points="-245.838 1413.047 -245.207 1413.842 -244.608 1414.653 -244.067 1415.492 -243.828 1415.927 -243.617 1416.374 -243.43 1416.837 -243.278 1417.313 -243.157 1417.8 -243.064 1418.297 -242.998 1418.801 -242.961 1419.307 -242.967 1420.314 -243.07 1421.302 -243.265 1422.249 -243.542 1423.144 -243.896 1423.97 -244.316 1424.719 -244.791 1425.39 -245.3 1426.015 -245.829 1426.611" style="paint-order: stroke; fill-rule: evenodd; fill: rgb(255, 255, 255); fill-opacity: 0; stroke: rgb(255, 255, 255); stroke-width: 28.2236px;" stroke-opacity="1" stroke-linecap="round" stroke-linejoin="bevel" font-family="Arial" font-size="12" font-weight="400" font-style="normal" fill-rule="evenodd"/>
        <polyline vector-effect="none" points="-0.091 953.82 1.73 951.434 3.529 949.147 5.303 946.954 7.055 944.851 8.789 942.84 10.5 940.92 12.194 939.084 13.868 937.335 15.527 935.667 17.168 934.082 18.792 932.576 20.405 931.15 22.005 929.801 23.59 928.527 25.161 927.328 26.724 926.203 28.278 925.153 29.819 924.175 31.35 923.267 32.876 922.429 34.392 921.661 35.902 920.962 37.406 920.332 38.903 919.769 40.394 919.272 41.883 918.843 43.368 918.483 44.846 918.185 46.325 917.955 47.804 917.793 49.28 917.694 50.752 917.66 52.228 917.694 53.704 917.793 55.18 917.955 56.659 918.185 58.141 918.483 59.626 918.843 61.114 919.272 62.605 919.769 64.103 920.332 65.606 920.962 67.116 921.661 68.632 922.429 70.155 923.267 71.689 924.175 73.23 925.153 74.781 926.203 76.343 927.328 77.919 928.527 79.503 929.801 81.1 931.15 82.712 932.576 84.34 934.082 85.981 935.667 87.64 937.335 89.314 939.084 91.008 940.92 92.72 942.84 94.45 944.851 96.202 946.954 97.979 949.147 99.775 951.434 101.599 953.82" style="paint-order: stroke; fill-rule: evenodd; fill: rgb(255, 255, 255); fill-opacity: 0; stroke: rgb(255, 255, 255); stroke-width: 28.2236px;" stroke-opacity="1" stroke-linecap="round" stroke-linejoin="bevel" font-family="Arial" font-size="12" font-weight="400" font-style="normal" fill-rule="evenodd"/>
        <polyline vector-effect="none" points="23.894 1247.372 21.732 1247.537 19.538 1247.698 17.314 1247.86 15.058 1248.021 12.775 1248.18 10.466 1248.338 5.769 1248.649 0.981 1248.953 -3.887 1249.252 -8.83 1249.541 -13.832 1249.823 -16.364 1249.966 -18.934 1250.109 -21.534 1250.252 -24.169 1250.398 -26.837 1250.547 -29.534 1250.696 -32.262 1250.849 -35.021 1251.001 -37.808 1251.156 -40.619 1251.311 -46.327 1251.628 -52.13 1251.951 -58.024 1252.281 -63.995 1252.61 -70.038 1252.946 -76.137 1253.284 -82.282 1253.626 -94.672 1254.316 -107.118 1255.005 -119.52 1255.695 -125.678 1256.037 -131.792 1256.379 -137.851 1256.714 -143.844 1257.047 -149.759 1257.376 -155.591 1257.699 -161.326 1258.019 -164.156 1258.174 -166.959 1258.333 -169.733 1258.485 -172.476 1258.637 -175.192 1258.79 -177.876 1258.939 -180.529 1259.085 -183.148 1259.231 -185.736 1259.374 -188.29 1259.517 -193.314 1259.799 -198.272 1260.085 -203.166 1260.383 -207.975 1260.685 -212.701 1260.995 -215.024 1261.151 -217.323 1261.309 -219.591 1261.468 -221.835 1261.629 -224.047 1261.791 -226.228 1261.955 -228.374 1262.12 -230.49 1262.285 -232.569 1262.453 -234.613 1262.62 -236.617 1262.788 -238.584 1262.959 -240.513 1263.127 -242.399 1263.298 -244.247 1263.472 -246.049 1263.642 -247.808 1263.813 -249.526 1263.987 -251.194 1264.158 -252.819 1264.332 -254.397 1264.503 -255.926 1264.677 -257.408 1264.851 -258.84 1265.022 -260.223 1265.196 -261.552 1265.367 -262.835 1265.538 -264.066 1265.712 -265.246 1265.879 -266.371 1266.05 -267.446 1266.221 -268.468 1266.389 -269.437 1266.557 -270.354 1266.721 -271.218 1266.889 -272.029 1267.054 -272.787 1267.215 -273.489 1267.377 -274.141 1267.538 -274.738 1267.7 -275.284 1267.855 -275.778 1268.014" style="paint-order: stroke; fill-rule: evenodd; fill: rgb(255, 255, 255); fill-opacity: 0; stroke: rgb(255, 255, 255); stroke-width: 28.2236px;" stroke-opacity="1" stroke-linecap="round" stroke-linejoin="bevel" font-family="Arial" font-size="12" font-weight="400" font-style="normal" fill-rule="evenodd"/>
        <polyline vector-effect="none" points="74.352 1357.453 74.321 1357.612 74.231 1357.77 74.082 1357.929 73.87 1358.093 73.597 1358.258 73.258 1358.426 72.861 1358.597 72.398 1358.767 71.87 1358.941 71.276 1359.115 70.621 1359.292 69.897 1359.47 69.111 1359.65 68.256 1359.833 67.337 1360.016 66.355 1360.2 65.305 1360.386 64.19 1360.572 63.012 1360.759 61.766 1360.948 60.458 1361.138 59.088 1361.327 57.653 1361.52 56.155 1361.71 54.596 1361.902 52.977 1362.095 51.299 1362.284 49.559 1362.477 47.764 1362.67 45.912 1362.862 44.001 1363.052 42.038 1363.244 40.021 1363.434 37.952 1363.623 35.833 1363.813 33.665 1364.002 31.447 1364.189 29.185 1364.375 26.876 1364.559 24.528 1364.745 22.135 1364.925 19.703 1365.108 17.233 1365.289 14.726 1365.466 12.187 1365.643 9.612 1365.817 7.008 1365.988 4.374 1366.159 -0.976 1366.494 -6.419 1366.823 -11.946 1367.14 -14.739 1367.296 -17.567 1367.454 -20.437 1367.613 -23.352 1367.774 -26.303 1367.939 -29.292 1368.103 -32.321 1368.271 -35.384 1368.442 -38.485 1368.616 -41.62 1368.79 -44.786 1368.964 -47.98 1369.141 -51.207 1369.321 -54.46 1369.501 -61.044 1369.868 -67.72 1370.238 -74.471 1370.614 -81.288 1370.993 -88.148 1371.375 -95.042 1371.757 -108.855 1372.524 -115.749 1372.907 -122.605 1373.289 -129.419 1373.668 -136.167 1374.041 -142.837 1374.413 -149.418 1374.777 -152.67 1374.957 -155.892 1375.137 -159.086 1375.314 -162.249 1375.491 -165.377 1375.665 -168.475 1375.836 -171.535 1376.007 -174.561 1376.175 -177.547 1376.34 -180.495 1376.504 -183.403 1376.666 -186.271 1376.824 -189.095 1376.983 -191.885 1377.138 -197.409 1377.455 -202.849 1377.784 -208.192 1378.12 -210.824 1378.291 -213.424 1378.465 -215.997 1378.639 -218.532 1378.816 -221.036 1378.993 -223.503 1379.173 -225.929 1379.353 -228.319 1379.537 -230.664 1379.72 -232.966 1379.906 -235.225 1380.093 -237.437 1380.279 -239.603 1380.469 -241.715 1380.658 -243.781 1380.848 -245.791 1381.037 -247.752 1381.23 -249.653 1381.419 -251.502 1381.612 -253.294 1381.805 -255.025 1381.997 -256.699 1382.187 -258.312 1382.379 -259.865 1382.572 -261.357 1382.761 -262.786 1382.954 -264.15 1383.144 -265.451 1383.333 -266.691 1383.52 -267.862 1383.709 -268.971 1383.895 -270.015 1384.082 -270.991 1384.265 -271.904 1384.448 -272.749 1384.629 -273.532 1384.809 -274.247 1384.989 -274.899 1385.166 -275.486 1385.34 -276.005 1385.514 -276.465 1385.685 -276.857 1385.853 -277.186 1386.02 -277.456 1386.185 -277.661 1386.35 -277.804 1386.508 -277.888 1386.667 -277.913 1386.825 -277.876 1386.981 -277.782 1387.139 -277.624 1387.301 -277.406 1387.465 -277.127 1387.63 -276.785 1387.798 -276.381 1387.968 -275.909 1388.139 -275.378 1388.313 -274.778 1388.487 -274.113 1388.664 -273.386 1388.845 -272.591 1389.025 -271.733 1389.205 -270.807 1389.388 -269.816 1389.575 -268.76 1389.758 -267.642 1389.948 -266.455 1390.134 -265.203 1390.323 -263.889 1390.513 -262.512 1390.702 -261.071 1390.892 -259.57 1391.085 -258.004 1391.274 -256.379 1391.467 -254.696 1391.659 -252.949 1391.852 -251.148 1392.045 -249.29 1392.234 -247.376 1392.427 -245.406 1392.616 -243.383 1392.809 -241.311 1392.998 -239.186 1393.185 -237.011 1393.374 -234.79 1393.561 -232.525 1393.747 -230.214 1393.934 -227.859 1394.117 -225.463 1394.3 -223.028 1394.48 -220.555 1394.661 -218.044 1394.838 -215.5 1395.015 -212.924 1395.189 -210.314 1395.36 -207.68 1395.531 -202.324 1395.866 -196.874 1396.192 -191.344 1396.509 -188.551 1396.668 -185.718 1396.823 -182.844 1396.984 -179.926 1397.146 -176.972 1397.311 -173.977 1397.475 -170.945 1397.643 -167.878 1397.814 -164.774 1397.988 -161.637 1398.162 -158.468 1398.336 -155.271 1398.516 -152.04 1398.693 -148.784 1398.877 -142.194 1399.24 -135.517 1399.613 -128.76 1399.989 -121.944 1400.368 -115.081 1400.747 -108.187 1401.132 -94.371 1401.9 -87.48 1402.282 -80.623 1402.661 -73.816 1403.04 -67.068 1403.416 -60.404 1403.785 -53.827 1404.152 -50.58 1404.332 -47.358 1404.509 -44.167 1404.686 -41.008 1404.863 -37.882 1405.037 -34.788 1405.208 -31.731 1405.379 -28.711 1405.547 -25.728 1405.712 -22.783 1405.876 -19.878 1406.038 -17.017 1406.196 -14.196 1406.352 -11.409 1406.51 -5.888 1406.827 -0.451 1407.156 4.886 1407.492 7.515 1407.663 10.115 1407.837 12.681 1408.011 15.217 1408.188 17.714 1408.365 20.178 1408.545 22.602 1408.728 24.984 1408.909 27.327 1409.095 29.626 1409.278 31.882 1409.465 34.087 1409.654 36.247 1409.841 38.356 1410.03 40.416 1410.223 42.423 1410.412 44.377 1410.602 46.276 1410.794 48.118 1410.987 49.901 1411.177 51.629 1411.369 53.297 1411.562 54.903 1411.754 56.45 1411.944 57.935 1412.137 59.358 1412.326 60.716 1412.516 62.012 1412.705 63.245 1412.895 64.41 1413.081 65.513 1413.267 66.551 1413.454 67.52 1413.637 68.427 1413.82 69.266 1414.001 70.043 1414.181 70.751 1414.361 71.397 1414.538 71.975 1414.712 72.491 1414.886 72.941 1415.057 73.33 1415.225 73.653 1415.392 73.917 1415.557 74.116 1415.719 74.253 1415.88 74.33 1416.039 74.349 1416.194 74.309 1416.352 74.206 1416.511 74.044 1416.673 73.821 1416.834 73.535 1417.002 73.187 1417.17 72.777 1417.337 72.298 1417.511 71.761 1417.685 71.155 1417.859 70.484 1418.036 69.751 1418.217 68.949 1418.397 68.082 1418.58 67.153 1418.763 66.156 1418.947 65.094 1419.133 63.966 1419.32 62.773 1419.506 61.518 1419.695 60.197 1419.885 58.815 1420.074 57.367 1420.267 55.857 1420.457 54.288 1420.649 52.657 1420.842 50.967 1421.035 49.218 1421.224 47.41 1421.417 45.545 1421.609 43.625 1421.799 41.65 1421.991 39.624 1422.181 37.545 1422.37 35.417 1422.56 33.236 1422.749 31.012 1422.936 28.741 1423.122 26.426 1423.306 24.065 1423.489 21.666 1423.672 19.228 1423.852 16.751 1424.033 14.238 1424.21 11.69 1424.387 9.108 1424.561 6.499 1424.732 3.861 1424.902 -1.498 1425.238 -6.954 1425.564 -12.487 1425.881 -15.283 1426.036 -18.123 1426.195 -21 1426.353 -23.92 1426.515 -26.878 1426.68 -29.876 1426.847 -32.911 1427.015 -35.984 1427.186 -39.091 1427.36 -42.229 1427.534 -45.401 1427.711 -48.604 1427.888 -51.835 1428.068 -55.094 1428.249 -61.687 1428.615 -68.373 1428.985 -75.13 1429.361 -81.95 1429.74 -88.816 1430.122 -95.71 1430.504 -109.526 1431.271 -116.414 1431.654 -123.27 1432.036 -130.074 1432.415 -136.816 1432.788 -143.48 1433.157 -150.051 1433.524 -153.295 1433.704 -156.513 1433.881 -159.701 1434.058 -162.858 1434.235 -165.983 1434.409 -169.071 1434.58 -172.125 1434.751 -175.142 1434.919 -178.121 1435.084 -181.064 1435.245 -183.962 1435.407 -186.821 1435.565 -189.639 1435.724 -192.422 1435.879 -197.94 1436.199 -203.371 1436.525 -206.052 1436.693 -208.705 1436.864 -211.33 1437.035 -213.928 1437.209 -216.491 1437.383 -219.023 1437.56 -221.518 1437.737 -223.975 1437.917 -226.395 1438.1 -228.775 1438.284 -231.115 1438.467 -233.408 1438.653 -235.66 1438.84 -237.863 1439.026 -240.016 1439.216 -242.122 1439.405 -244.176 1439.595 -246.177 1439.784 -248.125 1439.977 -250.017 1440.169 -251.853 1440.359 -253.633 1440.552 -255.354 1440.744 -257.016 1440.937 -258.619 1441.126 -260.16 1441.319 -261.639 1441.508 -263.053 1441.701 -264.407 1441.891 -265.697 1442.08 -266.921 1442.267 -268.083 1442.456 -269.18 1442.642 -270.208 1442.826 -271.174 1443.012 -272.072 1443.192 -272.908 1443.376 -273.675 1443.556 -274.38 1443.733 -275.017 1443.91 -275.592 1444.084 -276.099 1444.258 -276.546 1444.429 -276.925 1444.597 -277.245 1444.764 -277.5 1444.929 -277.692 1445.091 -277.826 1445.252 -277.897 1445.408 -277.91 1445.566 -277.863 1445.721 -277.754 1445.88 -277.587 1446.041 -277.36 1446.206 -277.068 1446.374 -276.71 1446.542 -276.294 1446.709 -275.813 1446.883 -275.266 1447.057 -274.654 1447.231 -273.98 1447.408 -273.237 1447.589 -272.429 1447.769 -271.559 1447.952 -270.621 1448.135 -269.618 1448.319 -268.549 1448.505 -267.415 1448.692 -266.216 1448.881 -264.954 1449.071" style="paint-order: stroke; fill-rule: evenodd; fill: rgb(255, 255, 255); fill-opacity: 0; stroke: rgb(255, 255, 255); stroke-width: 28.2236px;" stroke-opacity="1" stroke-linecap="round" stroke-linejoin="bevel" font-family="Arial" font-size="12" font-weight="400" font-style="normal" fill-rule="evenodd"/>
        <polyline vector-effect="none" points="74.352 1298.743 74.302 1298.945 74.153 1299.147 73.908 1299.355 73.56 1299.567 73.106 1299.784 72.55 1300.002 72.233 1300.114 71.888 1300.222 71.519 1300.334 71.124 1300.449 70.698 1300.561 70.248 1300.676 69.773 1300.791 69.269 1300.906 68.738 1301.021 68.182 1301.139 67.598 1301.254 66.986 1301.372 66.349 1301.49 65.684 1301.611 64.991 1301.729 64.273 1301.847 63.528 1301.968 62.757 1302.089 61.135 1302.332 59.411 1302.574 57.581 1302.817 55.649 1303.062 53.617 1303.307 51.486 1303.553 49.258 1303.798 46.934 1304.047 44.52 1304.289 42.013 1304.535 39.422 1304.78 36.744 1305.022 33.985 1305.265 31.145 1305.504 28.234 1305.74 25.249 1305.976 22.195 1306.212 19.075 1306.442 15.894 1306.672 12.653 1306.899 9.36 1307.123 6.014 1307.343 2.625 1307.561 -0.812 1307.775 -4.285 1307.986 -7.796 1308.191 -11.338 1308.396 -14.91 1308.595 -18.545 1308.797 -22.246 1309.002 -26.014 1309.21 -29.845 1309.425 -33.738 1309.642 -37.69 1309.86 -41.697 1310.083 -45.758 1310.307 -49.865 1310.537 -54.022 1310.767 -58.223 1311 -62.463 1311.236 -66.739 1311.475 -71.048 1311.714 -75.385 1311.954 -84.128 1312.441 -92.938 1312.929 -101.78 1313.42 -110.626 1313.911 -119.433 1314.402 -128.179 1314.887 -132.513 1315.129 -136.822 1315.368 -141.097 1315.604 -145.338 1315.84 -149.539 1316.073 -153.696 1316.306 -157.806 1316.533 -161.867 1316.76 -165.874 1316.981 -169.823 1317.201 -173.716 1317.419 -177.55 1317.63 -181.315 1317.841 -185.019 1318.046 -188.65 1318.248 -192.223 1318.447 -195.765 1318.649 -199.276 1318.857 -202.749 1319.068 -206.185 1319.283 -209.578 1319.5 -212.921 1319.721 -216.214 1319.944 -219.455 1320.168 -222.636 1320.398 -225.755 1320.631 -228.809 1320.864 -231.795 1321.1 -234.709 1321.339 -237.546 1321.579 -240.305 1321.821 -242.983 1322.063 -245.574 1322.306 -248.081 1322.551 -250.495 1322.796 -252.819 1323.042 -255.047 1323.287 -257.178 1323.533 -259.21 1323.778 -261.142 1324.024 -262.972 1324.269 -264.7 1324.511 -266.318 1324.754 -267.092 1324.875 -267.834 1324.993 -268.552 1325.114 -269.245 1325.232 -269.91 1325.35 -270.547 1325.468 -271.159 1325.586 -271.743 1325.705 -272.299 1325.819 -272.83 1325.938 -273.333 1326.053 -273.812 1326.167 -274.262 1326.279 -274.685 1326.394 -275.083 1326.506 -275.452 1326.618 -275.794 1326.73 -276.114 1326.842 -276.667 1327.059 -277.121 1327.273 -277.469 1327.485 -277.717 1327.693 -277.863 1327.898 -277.913 1328.1" style="paint-order: stroke; fill-rule: evenodd; fill: rgb(255, 255, 255); fill-opacity: 0; stroke: rgb(255, 255, 255); stroke-width: 28.2236px;" stroke-opacity="1" stroke-linecap="round" stroke-linejoin="bevel" font-family="Arial" font-size="12" font-weight="400" font-style="normal" fill-rule="evenodd"/>
        <polyline vector-effect="none" points="-203.47 953.82 -201.643 952.615 -199.826 951.434 -198.021 950.278 -196.231 949.147 -192.68 946.954 -189.176 944.851 -185.711 942.84 -182.288 940.92 -178.901 939.084 -175.552 937.335 -172.237 935.667 -168.953 934.082 -165.7 932.576 -162.475 931.15 -159.279 929.801 -156.11 928.527 -152.962 927.328 -149.837 926.203 -146.733 925.153 -143.651 924.175 -140.585 923.267 -137.537 922.429 -134.505 921.661 -131.485 920.962 -128.481 920.332 -125.486 919.769 -122.5 919.272 -119.524 918.843 -116.557 918.483 -113.593 918.185 -110.635 917.955 -107.68 917.793 -104.732 917.694 -101.78 917.66 -98.832 917.694 -95.881 917.793 -92.926 917.955 -89.968 918.185 -87.007 918.483 -84.037 918.843 -81.061 919.272 -78.078 919.769 -75.083 920.332 -72.076 920.962 -69.056 921.661 -66.024 922.429 -62.976 923.267 -59.91 924.175 -56.828 925.153 -53.724 926.203 -50.598 927.328 -47.454 928.527 -44.282 929.801 -41.085 931.15 -37.86 932.576 -34.611 934.082 -31.327 935.667 -28.009 937.335 -24.66 939.084 -21.273 940.92 -17.849 942.84 -14.388 944.851 -10.881 946.954 -7.333 949.147 -5.54 950.278 -3.735 951.434 -1.921 952.615 -0.091 953.82" style="paint-order: stroke; fill-rule: evenodd; fill: rgb(255, 255, 255); fill-opacity: 0; stroke: rgb(255, 255, 255); stroke-width: 28.2236px;" stroke-opacity="1" stroke-linecap="round" stroke-linejoin="bevel" font-family="Arial" font-size="12" font-weight="400" font-style="normal" fill-rule="evenodd"/>
        <polyline vector-effect="none" points="74.352 1364.792 74.336 1364.897 74.299 1365 74.231 1365.105 74.141 1365.214 74.02 1365.32 73.873 1365.428 73.699 1365.54 73.495 1365.649 73.265 1365.761 73.01 1365.873 72.721 1365.988 72.407 1366.103 72.065 1366.218 71.696 1366.333 71.295 1366.451 70.866 1366.566 70.409 1366.684 69.925 1366.805 69.409 1366.923 68.865 1367.044 68.291 1367.165 67.691 1367.286 67.06 1367.407 66.402 1367.532 65.712 1367.653 64.994 1367.777 64.249 1367.901 63.475 1368.026 62.67 1368.15 61.841 1368.277 60.98 1368.402 60.092 1368.529 59.175 1368.656 58.231 1368.781 57.258 1368.908 56.261 1369.035 55.232 1369.163 54.179 1369.29 53.101 1369.418 51.992 1369.545 49.702 1369.8 47.307 1370.055 44.812 1370.309 42.221 1370.564 39.534 1370.819 36.756 1371.07 33.889 1371.322 30.94 1371.571 27.908 1371.816 24.798 1372.062 21.617 1372.304 18.364 1372.543 15.046 1372.782 11.665 1373.015 8.229 1373.248 4.737 1373.475 1.199 1373.699 -2.387 1373.919 -6.012 1374.137 -9.675 1374.351 -13.369 1374.559 -17.11 1374.768 -20.928 1374.979 -24.818 1375.193 -28.776 1375.414 -32.803 1375.637 -36.891 1375.864 -41.042 1376.097 -45.249 1376.33 -49.511 1376.566 -53.823 1376.806 -58.185 1377.048 -62.588 1377.293 -67.027 1377.539 -71.504 1377.787 -76.009 1378.039 -85.097 1378.542 -94.249 1379.052 -112.611 1380.071 -121.745 1380.58 -130.798 1381.084 -135.281 1381.332 -139.734 1381.578 -144.148 1381.823 -148.52 1382.065 -152.844 1382.308 -157.122 1382.544 -161.345 1382.78 -165.514 1383.01 -169.618 1383.24 -173.663 1383.464 -177.64 1383.684 -181.551 1383.902 -185.388 1384.116 -189.151 1384.324 -192.854 1384.532 -196.526 1384.744 -200.161 1384.958 -203.759 1385.179 -207.313 1385.402 -210.818 1385.629 -214.269 1385.859 -217.665 1386.092 -221.002 1386.328 -224.273 1386.567 -227.473 1386.81 -230.605 1387.055 -233.659 1387.301 -236.632 1387.549 -239.522 1387.801 -242.324 1388.052 -245.039 1388.304 -247.655 1388.559 -250.178 1388.814 -252.601 1389.068 -254.922 1389.323 -256.044 1389.45 -257.141 1389.578 -258.209 1389.705 -259.25 1389.833 -260.263 1389.96 -261.251 1390.087 -262.211 1390.215 -263.143 1390.342 -264.047 1390.466 -264.923 1390.594 -265.771 1390.718 -266.588 1390.845 -267.381 1390.97 -268.142 1391.094 -268.875 1391.218 -269.58 1391.339 -270.255 1391.464 -270.901 1391.585 -271.519 1391.709 -272.109 1391.83 -272.669 1391.951 -273.2 1392.07 -273.703 1392.191 -274.175 1392.309 -274.62 1392.427 -275.036 1392.542 -275.424 1392.66 -275.782 1392.775 -276.111 1392.89 -276.412 1393.002 -276.686 1393.116 -276.931 1393.228 -277.149 1393.34 -277.341 1393.449 -277.503 1393.558 -277.636 1393.666 -277.745 1393.775 -277.826 1393.881 -277.882 1393.986 -277.907 1394.089 -277.885 1394.297 -277.835 1394.403 -277.758 1394.508 -277.652 1394.617 -277.521 1394.723 -277.36 1394.835 -277.173 1394.943 -276.959 1395.055 -276.717 1395.167" style="paint-order: stroke; fill-rule: evenodd; fill: rgb(255, 255, 255); fill-opacity: 0; stroke: rgb(255, 255, 255); stroke-width: 28.2236px;" stroke-opacity="1" stroke-linecap="round" stroke-linejoin="bevel" font-family="Arial" font-size="12" font-weight="400" font-style="normal" fill-rule="evenodd"/>
        <polyline vector-effect="none" points="74.352 1247.372 74.302 1247.571 74.153 1247.776 73.908 1247.984 73.56 1248.195 73.106 1248.413 72.55 1248.63 72.233 1248.739 71.888 1248.851 71.519 1248.963 71.124 1249.078 70.698 1249.189 70.248 1249.304 69.773 1249.419 69.269 1249.534 68.738 1249.649 68.182 1249.767 67.598 1249.882 66.986 1250 66.349 1250.118 65.684 1250.24 64.991 1250.358 64.273 1250.476 63.528 1250.597 62.757 1250.718 61.135 1250.96 59.411 1251.203 57.581 1251.445 55.649 1251.69 53.617 1251.936 51.486 1252.181 49.258 1252.427 46.934 1252.672 44.52 1252.918 42.013 1253.163 39.422 1253.409 36.744 1253.651 33.985 1253.89 31.145 1254.132 28.234 1254.369 25.249 1254.605 22.195 1254.841 19.075 1255.071 15.894 1255.301 12.653 1255.527 9.36 1255.751 6.014 1255.972 2.625 1256.189 -0.812 1256.404 -4.285 1256.615 -7.796 1256.82 -11.338 1257.025 -14.91 1257.224 -18.545 1257.426 -22.246 1257.631 -26.014 1257.839 -29.845 1258.053 -33.738 1258.268 -37.69 1258.488 -41.697 1258.712 -45.758 1258.936 -49.865 1259.166 -54.022 1259.395 -58.223 1259.628 -62.463 1259.865 -66.739 1260.104 -71.048 1260.343 -75.385 1260.582 -84.128 1261.07 -92.938 1261.558 -101.78 1262.049 -110.626 1262.54 -119.433 1263.03 -128.179 1263.515 -132.513 1263.757 -136.822 1263.997 -141.097 1264.233 -145.338 1264.469 -149.539 1264.702 -153.696 1264.935 -157.806 1265.162 -161.867 1265.389 -165.874 1265.609 -169.823 1265.83 -173.716 1266.047 -177.55 1266.258 -181.315 1266.467 -185.019 1266.675 -188.65 1266.877 -192.223 1267.076 -195.765 1267.277 -199.276 1267.486 -202.749 1267.697 -206.185 1267.908 -209.578 1268.126 -212.921 1268.346 -216.214 1268.57 -219.455 1268.797 -222.636 1269.027 -225.755 1269.26 -228.809 1269.493 -231.795 1269.729 -234.709 1269.968 -237.546 1270.207 -240.305 1270.449 -242.983 1270.692 -245.574 1270.934 -248.081 1271.18 -250.495 1271.425 -252.819 1271.671 -255.047 1271.916 -257.178 1272.161 -259.21 1272.407 -261.142 1272.652 -262.972 1272.898 -264.7 1273.14 -266.318 1273.382 -267.092 1273.5 -267.834 1273.622 -268.552 1273.743 -269.245 1273.861 -269.91 1273.979 -270.547 1274.097 -271.159 1274.215 -271.743 1274.333 -272.299 1274.448 -272.83 1274.566 -273.333 1274.681 -273.812 1274.796 -274.262 1274.908 -274.685 1275.023 -275.083 1275.135 -275.452 1275.247 -275.794 1275.358 -276.114 1275.467 -276.667 1275.688 -277.121 1275.902 -277.469 1276.113 -277.717 1276.321 -277.863 1276.526 -277.913 1276.728" style="paint-order: stroke; fill-rule: evenodd; fill: rgb(255, 255, 255); fill-opacity: 0; stroke: rgb(255, 255, 255); stroke-width: 28.2236px;" stroke-opacity="1" stroke-linecap="round" stroke-linejoin="bevel" font-family="Arial" font-size="12" font-weight="400" font-style="normal" fill-rule="evenodd"/>
        <polyline vector-effect="none" points="72.273 1307.436 71.602 1307.651 70.838 1307.865 69.977 1308.079 69.018 1308.3 67.964 1308.521 66.812 1308.744 65.563 1308.968 64.221 1309.195 62.779 1309.425 61.241 1309.655 59.613 1309.885 57.889 1310.118 56.071 1310.351 54.164 1310.584 52.166 1310.817 50.081 1311.05 47.91 1311.283 45.654 1311.516 43.318 1311.749 40.901 1311.979 38.403 1312.212 35.833 1312.441 33.19 1312.671 30.477 1312.898 27.694 1313.122 24.848 1313.349 21.943 1313.569 18.976 1313.79 15.956 1314.007 12.88 1314.222 9.758 1314.436 6.589 1314.644 3.376 1314.852 0.124 1315.054 -3.167 1315.256 -6.488 1315.455 -9.84 1315.648 -13.22 1315.84 -16.638 1316.03 -20.117 1316.222 -23.659 1316.418 -27.257 1316.62 -30.914 1316.822 -34.626 1317.03 -38.389 1317.238 -42.204 1317.45 -46.063 1317.664 -49.968 1317.882 -53.917 1318.102 -57.903 1318.323 -61.926 1318.546 -65.983 1318.77 -70.069 1318.997 -74.179 1319.227 -82.472 1319.687 -90.826 1320.153 -99.22 1320.619 -116.003 1321.551 -124.336 1322.014 -132.594 1322.47 -136.686 1322.7 -140.749 1322.924 -144.779 1323.148 -148.774 1323.371 -152.729 1323.592 -156.647 1323.809 -160.518 1324.024 -164.34 1324.235 -168.114 1324.446 -171.839 1324.651 -175.509 1324.856 -179.119 1325.055 -182.673 1325.254 -186.168 1325.447 -189.598 1325.639 -192.985 1325.829 -196.343 1326.021 -199.67 1326.22 -202.967 1326.419 -206.229 1326.624 -209.448 1326.829 -212.629 1327.037 -215.761 1327.252 -218.846 1327.466 -221.881 1327.684 -224.858 1327.901 -227.778 1328.125 -230.639 1328.348 -233.432 1328.572 -236.163 1328.799 -238.823 1329.029 -241.408 1329.259 -243.921 1329.489 -246.357 1329.722 -248.712 1329.955 -250.986 1330.188 -253.176 1330.421 -255.28 1330.654 -257.296 1330.887 -259.222 1331.12 -261.058 1331.353 -262.804 1331.583 -264.454 1331.816 -266.011 1332.046 -267.474 1332.272 -268.838 1332.499 -270.108 1332.726 -271.283 1332.95 -272.358 1333.17 -273.336 1333.391 -274.219 1333.608 -275.005 1333.823 -275.698 1334.037 -276.291 1334.245 -276.791 1334.453 -277.198 1334.655 -277.512 1334.857 -277.736 1335.053 -277.869 1335.246 -277.913 1335.438" style="paint-order: stroke; fill-rule: evenodd; fill: rgb(255, 255, 255); fill-opacity: 0; stroke: rgb(255, 255, 255); stroke-width: 28.2236px;" stroke-opacity="1" stroke-linecap="round" stroke-linejoin="bevel" font-family="Arial" font-size="12" font-weight="400" font-style="normal" fill-rule="evenodd"/>
        <polyline vector-effect="none" points="72.273 1424.859 71.602 1425.07 70.838 1425.285 69.977 1425.502 69.018 1425.72 67.964 1425.943 66.812 1426.164 65.563 1426.391 64.221 1426.617 62.779 1426.844 61.241 1427.074 59.613 1427.307 57.889 1427.537 56.071 1427.77 54.164 1428.003 52.166 1428.236 50.081 1428.469 47.91 1428.702 45.654 1428.935 43.318 1429.168 40.901 1429.401 38.403 1429.631 35.833 1429.861 33.19 1430.091 30.477 1430.318 27.694 1430.544 24.848 1430.768 21.943 1430.989 18.976 1431.209 15.956 1431.427 12.88 1431.644 9.758 1431.856 6.589 1432.067 3.376 1432.272 0.124 1432.477 -3.167 1432.679 -6.488 1432.875 -9.84 1433.07 -13.22 1433.26 -16.638 1433.449 -20.117 1433.645 -23.659 1433.841 -27.257 1434.04 -30.914 1434.245 -34.626 1434.45 -38.389 1434.658 -42.204 1434.872 -46.063 1435.087 -49.968 1435.301 -53.917 1435.522 -57.903 1435.742 -61.926 1435.966 -65.983 1436.193 -70.069 1436.42 -74.179 1436.646 -82.472 1437.109 -90.826 1437.572 -99.22 1438.038 -116.003 1438.97 -124.336 1439.433 -132.594 1439.893 -136.686 1440.12 -140.749 1440.347 -144.779 1440.57 -148.774 1440.791 -152.729 1441.011 -156.647 1441.229 -160.518 1441.443 -164.34 1441.658 -168.114 1441.866 -171.839 1442.074 -175.509 1442.276 -179.119 1442.478 -182.673 1442.674 -186.168 1442.869 -189.598 1443.059 -192.985 1443.248 -196.343 1443.444 -199.67 1443.64 -202.967 1443.842 -206.229 1444.044 -209.448 1444.249 -212.629 1444.46 -215.761 1444.671 -218.846 1444.886 -221.881 1445.103 -224.858 1445.324 -227.778 1445.544 -230.639 1445.768 -233.432 1445.995 -236.163 1446.222 -238.823 1446.448 -241.408 1446.678 -243.921 1446.911 -246.357 1447.141 -248.712 1447.374 -250.986 1447.607 -253.176 1447.84 -255.28 1448.073 -257.296 1448.306 -259.222 1448.539 -261.058 1448.772 -262.804 1449.005 -264.454 1449.235 -266.011 1449.465 -267.474 1449.695 -268.838 1449.922 -270.108 1450.149 -271.283 1450.372 -272.358 1450.593 -273.336 1450.813 -274.219 1451.031 -275.005 1451.245 -275.698 1451.457 -276.291 1451.668 -276.791 1451.873 -277.198 1452.078 -277.512 1452.277 -277.736 1452.476 -277.869 1452.668 -277.913 1452.858" style="paint-order: stroke; fill-rule: evenodd; fill: rgb(255, 255, 255); fill-opacity: 0; stroke: rgb(255, 255, 255); stroke-width: 28.2236px;" stroke-opacity="1" stroke-linecap="round" stroke-linejoin="bevel" font-family="Arial" font-size="12" font-weight="400" font-style="normal" fill-rule="evenodd"/>
        <polyline vector-effect="none" points="42.572 1339.107 42.532 1339.306 42.411 1339.511 42.209 1339.719 41.923 1339.931 41.553 1340.148 41.096 1340.366 40.556 1340.586 39.928 1340.81 39.211 1341.04 38.406 1341.27 37.517 1341.503 36.536 1341.736 35.47 1341.972 34.314 1342.211 33.072 1342.453 31.742 1342.696 30.328 1342.938 28.828 1343.18 27.246 1343.426 25.581 1343.671 23.832 1343.917 22.008 1344.162 20.104 1344.408 18.125 1344.653 16.071 1344.899 13.946 1345.144 11.749 1345.386 9.488 1345.626 7.164 1345.868 4.775 1346.104 2.329 1346.34 -0.175 1346.576 -2.732 1346.806 -5.338 1347.036 -7.995 1347.263 -10.691 1347.487 -13.435 1347.707 -16.212 1347.925 -19.027 1348.139 -21.876 1348.347 -24.753 1348.555 -27.655 1348.757 -30.584 1348.959 -33.561 1349.161 -36.596 1349.366 -39.684 1349.574 -42.822 1349.789 -46.013 1350.003 -49.253 1350.224 -52.537 1350.447 -55.865 1350.671 -59.232 1350.901 -62.641 1351.131 -66.083 1351.364 -69.556 1351.6 -73.061 1351.839 -80.148 1352.318 -87.312 1352.802 -94.532 1353.293 -101.78 1353.784 -109.029 1354.275 -116.249 1354.766 -123.416 1355.25 -130.5 1355.732 -134.004 1355.968 -137.481 1356.204 -140.923 1356.437 -144.328 1356.667 -147.696 1356.897 -151.024 1357.124 -154.311 1357.344 -157.548 1357.565 -160.739 1357.779 -163.88 1357.994 -166.965 1358.202 -170 1358.41 -172.977 1358.612 -175.906 1358.811 -178.808 1359.013 -181.685 1359.221 -184.534 1359.432 -187.349 1359.644 -190.129 1359.861 -192.87 1360.082 -195.569 1360.305 -198.223 1360.532 -200.829 1360.762 -203.386 1360.995 -205.89 1361.228 -208.339 1361.464 -210.725 1361.703 -213.052 1361.943 -215.313 1362.185 -217.507 1362.427 -219.632 1362.67 -221.685 1362.915 -223.665 1363.16 -225.569 1363.406 -227.396 1363.651 -229.142 1363.897 -230.807 1364.142 -232.392 1364.388 -233.889 1364.63 -235.306 1364.875 -236.632 1365.118 -237.875 1365.357 -239.031 1365.596 -240.096 1365.832 -241.078 1366.068 -241.97 1366.301 -242.772 1366.531 -243.489 1366.758 -244.117 1366.982 -244.661 1367.202 -245.114 1367.423 -245.484 1367.637 -245.77 1367.849 -245.975 1368.057 -246.096 1368.262 -246.133 1368.461" style="paint-order: stroke; fill-rule: evenodd; fill: rgb(255, 255, 255); fill-opacity: 0; stroke: rgb(255, 255, 255); stroke-width: 28.2236px;" stroke-opacity="1" stroke-linecap="round" stroke-linejoin="bevel" font-family="Arial" font-size="12" font-weight="400" font-style="normal" fill-rule="evenodd"/>
        <polyline vector-effect="none" points="42.572 1397.817 42.541 1397.991 42.451 1398.168 42.296 1398.352 42.081 1398.535 41.799 1398.718 41.454 1398.908 41.044 1399.1 40.568 1399.293 40.025 1399.489 39.419 1399.687 38.742 1399.886 38.002 1400.088 37.191 1400.29 36.315 1400.498 35.374 1400.703 34.364 1400.912 33.289 1401.123 32.146 1401.334 30.94 1401.545 29.666 1401.757 28.33 1401.971 26.932 1402.185 25.469 1402.397 23.947 1402.611 22.362 1402.825 20.719 1403.04 19.016 1403.254 17.258 1403.468 15.443 1403.683 13.573 1403.894 11.653 1404.105 9.683 1404.317 7.661 1404.525 5.595 1404.733 3.479 1404.941 1.323 1405.146 -0.88 1405.351 -3.12 1405.553 -5.397 1405.752 -7.712 1405.948 -10.061 1406.143 -12.44 1406.339 -14.851 1406.529 -17.29 1406.718 -22.246 1407.085 -27.288 1407.442 -29.836 1407.619 -32.417 1407.793 -35.043 1407.97 -37.708 1408.15 -40.417 1408.337 -43.164 1408.52 -45.951 1408.71 -48.772 1408.902 -51.627 1409.095 -54.519 1409.291 -57.44 1409.489 -60.394 1409.688 -63.374 1409.89 -66.381 1410.095 -72.467 1410.509 -78.638 1410.925 -84.87 1411.347 -91.155 1411.773 -97.468 1412.202 -110.113 1413.059 -116.407 1413.485 -122.661 1413.91 -128.856 1414.33 -134.974 1414.746 -141.001 1415.153 -143.974 1415.355 -146.92 1415.554 -149.834 1415.753 -152.714 1415.949 -155.563 1416.141 -158.375 1416.331 -161.149 1416.52 -163.886 1416.704 -166.583 1416.887 -169.236 1417.067 -171.849 1417.244 -174.421 1417.418 -179.492 1417.772 -184.478 1418.136 -186.939 1418.322 -189.368 1418.512 -191.773 1418.704 -194.143 1418.897 -196.483 1419.093 -198.788 1419.292 -201.056 1419.493 -203.287 1419.695 -205.474 1419.9 -207.621 1420.106 -209.721 1420.311 -211.778 1420.522 -213.785 1420.73 -215.742 1420.941 -217.65 1421.153 -219.504 1421.367 -221.303 1421.578 -223.046 1421.793 -224.733 1422.007 -226.361 1422.221 -227.927 1422.436 -229.434 1422.65 -230.882 1422.864 -232.264 1423.079 -233.582 1423.29 -234.837 1423.504" style="paint-order: stroke; fill-rule: evenodd; fill: rgb(255, 255, 255); fill-opacity: 0; stroke: rgb(255, 255, 255); stroke-width: 28.2236px;" stroke-opacity="1" stroke-linecap="round" stroke-linejoin="bevel" font-family="Arial" font-size="12" font-weight="400" font-style="normal" fill-rule="evenodd"/>
        <polyline vector-effect="none" points="42.572 1280.398 42.532 1280.596 42.411 1280.801 42.209 1281.01 41.923 1281.221 41.553 1281.435 41.096 1281.656 40.556 1281.876 39.928 1282.1 39.211 1282.327 38.406 1282.56 37.517 1282.79 36.536 1283.026 35.47 1283.262 34.314 1283.501 33.072 1283.741 31.742 1283.983 30.328 1284.228 28.828 1284.471 27.246 1284.716 25.581 1284.962 23.832 1285.207 22.008 1285.452 20.104 1285.698 18.125 1285.943 16.071 1286.189 13.946 1286.431 11.749 1286.673 9.488 1286.916 7.164 1287.155 4.775 1287.394 2.329 1287.63 -0.175 1287.863 -2.732 1288.096 -5.338 1288.326 -7.995 1288.553 -10.691 1288.777 -13.435 1288.997 -16.212 1289.215 -19.027 1289.429 -21.876 1289.637 -24.753 1289.845 -27.655 1290.047 -30.584 1290.249 -33.561 1290.448 -36.596 1290.656 -39.684 1290.865 -42.822 1291.079 -46.013 1291.293 -49.253 1291.514 -52.537 1291.734 -55.865 1291.961 -59.232 1292.191 -62.641 1292.421 -66.083 1292.654 -69.556 1292.89 -73.061 1293.126 -80.148 1293.608 -87.312 1294.093 -94.532 1294.583 -101.78 1295.074 -109.029 1295.565 -116.249 1296.056 -123.416 1296.541 -130.5 1297.022 -134.004 1297.258 -137.481 1297.494 -140.923 1297.727 -144.328 1297.957 -147.696 1298.187 -151.024 1298.411 -154.311 1298.635 -157.548 1298.855 -160.739 1299.07 -163.88 1299.284 -166.965 1299.492 -170 1299.697 -172.977 1299.899 -175.906 1300.101 -178.808 1300.303 -181.685 1300.511 -184.534 1300.719 -187.349 1300.934 -190.129 1301.151 -192.87 1301.372 -195.569 1301.595 -198.223 1301.822 -200.829 1302.052 -203.386 1302.282 -205.89 1302.518 -208.339 1302.754 -210.725 1302.99 -213.052 1303.233 -215.313 1303.472 -217.507 1303.714 -219.632 1303.96 -221.685 1304.205 -223.665 1304.451 -225.569 1304.696 -227.396 1304.942 -229.142 1305.187 -230.807 1305.432 -232.392 1305.678 -233.889 1305.92 -235.306 1306.166 -236.632 1306.405 -237.875 1306.647 -239.031 1306.886 -240.096 1307.123 -241.078 1307.356 -241.97 1307.589 -242.772 1307.818 -243.489 1308.048 -244.117 1308.272 -244.661 1308.493 -245.114 1308.71 -245.484 1308.928 -245.77 1309.139 -245.975 1309.347 -246.096 1309.552 -246.133 1309.751" style="paint-order: stroke; fill-rule: evenodd; fill: rgb(255, 255, 255); fill-opacity: 0; stroke: rgb(255, 255, 255); stroke-width: 28.2236px;" stroke-opacity="1" stroke-linecap="round" stroke-linejoin="bevel" font-family="Arial" font-size="12" font-weight="400" font-style="normal" fill-rule="evenodd"/>
        <polyline vector-effect="none" points="-234.837 1247.372 -235.635 1247.512 -236.403 1247.652 -237.142 1247.791 -237.853 1247.931 -238.534 1248.071 -239.186 1248.208 -239.808 1248.344 -240.401 1248.481 -240.963 1248.618 -241.498 1248.755 -242.001 1248.888 -242.476 1249.022 -242.921 1249.155 -243.337 1249.286 -243.722 1249.416 -244.079 1249.547 -244.406 1249.674 -244.707 1249.805 -244.974 1249.929 -245.217 1250.056 -245.428 1250.181 -245.614 1250.305 -245.77 1250.426 -245.897 1250.547 -245.996 1250.668 -246.071 1250.786 -246.114 1250.904 -246.133 1251.019 -246.127 1251.134 -246.09 1251.252 -246.027 1251.37 -245.937 1251.489" style="paint-order: stroke; fill-rule: evenodd; fill: rgb(255, 255, 255); fill-opacity: 0; stroke: rgb(255, 255, 255); stroke-width: 28.2236px;" stroke-opacity="1" stroke-linecap="round" stroke-linejoin="bevel" font-family="Arial" font-size="12" font-weight="400" font-style="normal" fill-rule="evenodd"/>
        <polyline vector-effect="none" points="41.476 1325.509 41.003 1325.729 40.444 1325.95 39.798 1326.177 39.061 1326.407 38.241 1326.637 37.328 1326.87 36.331 1327.106 35.243 1327.345 34.066 1327.584 32.804 1327.823 31.453 1328.069 30.018 1328.311 28.498 1328.557 26.892 1328.802 25.205 1329.047 23.437 1329.293 21.589 1329.541 19.662 1329.787 17.662 1330.032 15.589 1330.278 13.443 1330.52 11.227 1330.766 8.944 1331.005 6.598 1331.247 4.19 1331.483 1.724 1331.719 -0.796 1331.955 -3.372 1332.185 -5.997 1332.415 -8.669 1332.642 -11.387 1332.866 -14.143 1333.086 -16.939 1333.301 -19.769 1333.515 -22.631 1333.726 -25.523 1333.931 -28.438 1334.133 -31.383 1334.335 -34.384 1334.537 -37.438 1334.745 -40.548 1334.957 -43.711 1335.171 -46.92 1335.388 -50.182 1335.609 -53.485 1335.833 -56.831 1336.06 -60.22 1336.289 -63.644 1336.523 -67.105 1336.756 -70.597 1336.992 -77.665 1337.473 -84.82 1337.958 -92.041 1338.446 -106.568 1339.43 -113.816 1339.921 -121.021 1340.412 -128.151 1340.894 -131.681 1341.133 -135.185 1341.372 -138.655 1341.605 -142.095 1341.838 -145.497 1342.071 -148.858 1342.298 -152.179 1342.522 -155.454 1342.745 -158.682 1342.963 -161.863 1343.18 -164.992 1343.392 -168.068 1343.6 -171.088 1343.805 -174.052 1344.007 -179.877 1344.411 -182.751 1344.622 -185.59 1344.833 -188.399 1345.048 -191.173 1345.268 -193.904 1345.489 -196.592 1345.716 -199.236 1345.942 -201.83 1346.175 -204.371 1346.408 -206.857 1346.641 -209.286 1346.881 -211.657 1347.12 -213.962 1347.362 -216.202 1347.605 -218.374 1347.847 -220.474 1348.092 -222.503 1348.338 -224.457 1348.583 -226.333 1348.829 -228.129 1349.077 -229.847 1349.323 -231.481 1349.568 -233.035 1349.814 -234.501 1350.056 -235.881 1350.301 -237.176 1350.544 -238.385 1350.783 -239.503 1351.022 -240.535 1351.258 -241.479 1351.491 -242.333 1351.724 -243.101 1351.954 -243.778 1352.181 -244.372 1352.405 -244.875 1352.625 -245.291 1352.843 -245.627 1353.057 -245.875 1353.265 -246.04 1353.473 -246.124 1353.675 -246.127 1353.877 -246.049 1354.079 -245.891 1354.287 -245.648 1354.495 -245.322 1354.71 -244.909 1354.927" style="paint-order: stroke; fill-rule: evenodd; fill: rgb(255, 255, 255); fill-opacity: 0; stroke: rgb(255, 255, 255); stroke-width: 28.2236px;" stroke-opacity="1" stroke-linecap="round" stroke-linejoin="bevel" font-family="Arial" font-size="12" font-weight="400" font-style="normal" fill-rule="evenodd"/>
        <polyline vector-effect="none" points="42.395 1442.279 42.249 1442.428 42.06 1442.58 41.827 1442.736 41.55 1442.891 41.227 1443.049 40.86 1443.211 40.447 1443.369 39.987 1443.534 39.484 1443.699 38.934 1443.863 38.338 1444.031 37.695 1444.199 37.005 1444.37 36.268 1444.541 35.489 1444.712 34.659 1444.886 33.786 1445.06 32.866 1445.234 31.903 1445.411 30.894 1445.585 29.837 1445.762 28.741 1445.939 27.597 1446.116 26.41 1446.293 25.18 1446.473 23.909 1446.65 22.595 1446.827 21.241 1447.008 19.846 1447.185 18.41 1447.362 16.935 1447.539 15.425 1447.716 13.874 1447.893 12.29 1448.07 10.668 1448.244 9.012 1448.421 7.322 1448.595 5.601 1448.766 3.846 1448.94 2.062 1449.111 0.251 1449.279 -1.591 1449.446 -5.357 1449.782 -9.222 1450.108 -13.177 1450.428 -17.216 1450.745 -21.323 1451.053 -25.495 1451.351 -29.721 1451.643 -31.861 1451.789 -34.033 1451.935 -36.233 1452.084 -38.463 1452.236 -40.719 1452.389 -43.002 1452.544 -47.647 1452.858" style="paint-order: stroke; fill-rule: evenodd; fill: rgb(255, 255, 255); fill-opacity: 0; stroke: rgb(255, 255, 255); stroke-width: 28.2236px;" stroke-opacity="1" stroke-linecap="round" stroke-linejoin="bevel" font-family="Arial" font-size="12" font-weight="400" font-style="normal" fill-rule="evenodd"/>
        <polyline vector-effect="none" points="41.476 1384.219 41.025 1384.43 40.494 1384.644 39.885 1384.859 39.195 1385.076 38.421 1385.297 37.57 1385.52 36.638 1385.747 35.622 1385.974 34.529 1386.201 33.354 1386.431 32.099 1386.664 30.763 1386.897 29.349 1387.13 27.861 1387.366 26.296 1387.602 24.652 1387.835 22.937 1388.071 21.151 1388.307 19.29 1388.543 17.363 1388.779 15.369 1389.012 13.309 1389.245 11.184 1389.478 9 1389.711 6.757 1389.941 4.458 1390.168 2.103 1390.395 -0.302 1390.619 -2.756 1390.842 -5.257 1391.063 -7.802 1391.28 -10.39 1391.495 -13.015 1391.706 -15.675 1391.914 -18.368 1392.122 -21.093 1392.324 -26.623 1392.719 -29.422 1392.911 -32.256 1393.104 -35.145 1393.3 -38.081 1393.499 -41.067 1393.701 -44.102 1393.909 -47.181 1394.117 -50.303 1394.328 -53.466 1394.543 -56.669 1394.76 -59.91 1394.981 -63.184 1395.201 -66.493 1395.425 -69.83 1395.652 -76.581 1396.108 -83.422 1396.571 -90.323 1397.04 -97.263 1397.513 -111.169 1398.454 -118.088 1398.923 -124.948 1399.386 -131.727 1399.846 -135.08 1400.076 -138.407 1400.3 -141.7 1400.523 -144.962 1400.744 -148.187 1400.964 -151.375 1401.179 -154.522 1401.393 -157.629 1401.604 -160.689 1401.809 -163.706 1402.015 -166.67 1402.216 -169.587 1402.412 -172.455 1402.608 -175.269 1402.8 -180.828 1403.192 -183.571 1403.391 -186.283 1403.596 -188.964 1403.804 -191.611 1404.012 -194.221 1404.227 -196.79 1404.444 -199.319 1404.661 -201.802 1404.882 -204.237 1405.106 -206.62 1405.329 -208.954 1405.556 -211.231 1405.786 -213.449 1406.016 -215.612 1406.249 -217.709 1406.482 -219.744 1406.715 -221.71 1406.951 -223.612 1407.187 -225.442 1407.42 -227.2 1407.656 -228.884 1407.893 -230.496 1408.129 -232.031 1408.365 -233.491 1408.598 -234.874 1408.831 -236.176 1409.064 -237.4 1409.297 -238.54 1409.527 -239.603 1409.754 -240.584 1409.98 -241.485 1410.204 -242.306 1410.428 -243.045 1410.645 -243.704 1410.863 -244.278 1411.077 -244.779 1411.291 -245.198 1411.5 -245.537 1411.705 -245.801 1411.907 -245.987 1412.105 -246.099 1412.301 -246.133 1412.494" style="paint-order: stroke; fill-rule: evenodd; fill: rgb(255, 255, 255); fill-opacity: 0; stroke: rgb(255, 255, 255); stroke-width: 28.2236px;" stroke-opacity="1" stroke-linecap="round" stroke-linejoin="bevel" font-family="Arial" font-size="12" font-weight="400" font-style="normal" fill-rule="evenodd"/>
        <polyline vector-effect="none" points="41.907 1266.554 41.544 1266.762 41.103 1266.976 40.581 1267.19 39.978 1267.408 39.291 1267.625 38.524 1267.849 37.673 1268.073 36.741 1268.3 35.725 1268.53 34.628 1268.759 33.448 1268.992 32.186 1269.225 30.847 1269.462 29.424 1269.698 27.923 1269.934 26.345 1270.173 24.692 1270.409 22.962 1270.648 21.157 1270.885 19.28 1271.124 17.335 1271.36 15.322 1271.599 13.241 1271.832 11.094 1272.068 8.888 1272.301 6.62 1272.534 4.296 1272.764 1.916 1272.991 -0.516 1273.218 -2.996 1273.441 -5.525 1273.665 -8.1 1273.883 -10.713 1274.1 -13.369 1274.314 -16.057 1274.523 -18.782 1274.731 -21.537 1274.936 -24.318 1275.138 -29.954 1275.526 -32.824 1275.722 -35.748 1275.921 -38.724 1276.123 -41.747 1276.328 -44.82 1276.536 -47.939 1276.747 -51.102 1276.961 -54.305 1277.179 -57.548 1277.4 -60.829 1277.62 -64.144 1277.844 -67.49 1278.071 -70.867 1278.3 -74.269 1278.53 -81.145 1278.996 -88.092 1279.469 -95.085 1279.944 -109.125 1280.895 -116.115 1281.367 -123.056 1281.839 -129.925 1282.305 -133.324 1282.535 -136.695 1282.762 -140.035 1282.989 -143.344 1283.212 -146.618 1283.436 -149.852 1283.654 -153.049 1283.871 -156.203 1284.085 -159.313 1284.297 -162.376 1284.505 -165.393 1284.707 -168.357 1284.909 -171.271 1285.108 -174.132 1285.3 -179.762 1285.692 -182.539 1285.894 -185.286 1286.099 -188.004 1286.307 -190.689 1286.518 -193.336 1286.732 -195.942 1286.95 -198.508 1287.17 -201.028 1287.391 -203.501 1287.615 -205.924 1287.842 -208.292 1288.072 -210.606 1288.301 -212.862 1288.534 -215.059 1288.767 -217.193 1289.004 -219.262 1289.24 -221.263 1289.476 -223.195 1289.712 -225.059 1289.951 -226.849 1290.187 -228.564 1290.426 -230.204 1290.666 -231.77 1290.902 -233.255 1291.138 -234.663 1291.374 -235.989 1291.61 -237.235 1291.843 -238.397 1292.076 -239.481 1292.306 -240.482 1292.533 -241.398 1292.76 -242.234 1292.986 -242.986 1293.207 -243.657 1293.428 -244.244 1293.642 -244.754 1293.856 -245.179 1294.068 -245.527 1294.276 -245.794 1294.481 -245.984 1294.683 -246.096 1294.879 -246.133 1295.074" style="paint-order: stroke; fill-rule: evenodd; fill: rgb(255, 255, 255); fill-opacity: 0; stroke: rgb(255, 255, 255); stroke-width: 28.2236px;" stroke-opacity="1" stroke-linecap="round" stroke-linejoin="bevel" font-family="Arial" font-size="12" font-weight="400" font-style="normal" fill-rule="evenodd"/>
        <polyline vector-effect="none" points="-305.16 953.82 -303.339 951.434 -301.54 949.147 -299.766 946.954 -298.011 944.851 -296.28 942.84 -294.569 940.92 -292.875 939.084 -291.201 937.335 -289.542 935.667 -287.901 934.082 -286.273 932.576 -284.664 931.15 -283.064 929.801 -281.479 928.527 -279.904 927.328 -278.345 926.203 -276.791 925.153 -275.25 924.175 -273.719 923.267 -272.193 922.429 -270.677 921.661 -269.167 920.962 -267.663 920.332 -266.166 919.769 -264.675 919.272 -263.187 918.843 -261.701 918.483 -260.223 918.185 -258.744 917.955 -257.265 917.793 -255.789 917.694 -254.316 917.66 -252.841 917.694 -251.365 917.793 -249.889 917.955 -248.41 918.185 -246.928 918.483 -245.443 918.843 -243.955 919.272 -242.464 919.769 -240.966 920.332 -239.463 920.962 -237.953 921.661 -236.437 922.429 -234.911 923.267 -233.38 924.175 -231.839 925.153 -230.288 926.203 -228.726 927.328 -227.15 928.527 -225.566 929.801 -223.969 931.15 -222.357 932.576 -220.729 934.082 -219.088 935.667 -217.429 937.335 -215.755 939.084 -214.061 940.92 -212.349 942.84 -210.619 944.851 -208.867 946.954 -207.09 949.147 -205.294 951.434 -203.47 953.82" style="paint-order: stroke; fill-rule: evenodd; fill: rgb(255, 255, 255); fill-opacity: 0; stroke: rgb(255, 255, 255); stroke-width: 28.2236px;" stroke-opacity="1" stroke-linecap="round" stroke-linejoin="bevel" font-family="Arial" font-size="12" font-weight="400" font-style="normal" fill-rule="evenodd"/>
        <polyline vector-effect="none" points="-248.556 1482.214 44.996 1482.214" style="paint-order: stroke; fill-rule: evenodd; fill: rgb(255, 255, 255); fill-opacity: 0; stroke: rgb(255, 255, 255); stroke-width: 28.2236px;" stroke-opacity="1" stroke-linecap="round" stroke-linejoin="bevel" font-family="Arial" font-size="12" font-weight="400" font-style="normal" fill-rule="evenodd"/>
        <polyline vector-effect="none" points="-277.913 1452.858 74.352 1452.858" style="paint-order: stroke; fill-rule: evenodd; fill: rgb(255, 255, 255); fill-opacity: 0; stroke: rgb(255, 255, 255); stroke-width: 28.2236px;" stroke-opacity="1" stroke-linecap="round" stroke-linejoin="bevel" font-family="Arial" font-size="12" font-weight="400" font-style="normal" fill-rule="evenodd"/>
        <polyline vector-effect="none" points="23.894 1247.372 74.352 1247.372" style="paint-order: stroke; fill-rule: evenodd; fill: rgb(255, 255, 255); fill-opacity: 0; stroke: rgb(255, 255, 255); stroke-width: 28.2236px;" stroke-opacity="1" stroke-linecap="round" stroke-linejoin="bevel" font-family="Arial" font-size="12" font-weight="400" font-style="normal" fill-rule="evenodd"/>
        <polyline vector-effect="none" points="-75.369 718.978 -128.195 718.978" style="paint-order: stroke; fill-rule: evenodd; fill: rgb(255, 255, 255); fill-opacity: 0; stroke: rgb(255, 255, 255); stroke-width: 28.2236px;" stroke-opacity="1" stroke-linecap="round" stroke-linejoin="bevel" font-family="Arial" font-size="12" font-weight="400" font-style="normal" fill-rule="evenodd"/>
      </g>
      <text style="fill: rgb(51, 51, 51); font-family: &quot;Alfa Slab One&quot;; font-size: 150px; white-space: pre;"><title>HOUSER</title><tspan style="fill: rgb(153, 153, 153); font-size: 150px; word-spacing: 0px;" x="-676.66" y="83.789">H</tspan><tspan style="fill: rgb(255, 0, 0); font-size: 150px; word-spacing: 0px;">O</tspan><tspan style="fill: rgb(153, 153, 153); paint-order: stroke; font-size: 150px; word-spacing: 0px;">USERS</tspan></text>
      <text style="fill: rgb(255, 255, 255); font-family: Arial, sans-serif; font-size: 112px; letter-spacing: 3.7px; stroke-width: 0px; white-space: pre;" transform="matrix(2.436312, 0, 0, 2.353578, -244.202362, -1621.662964)" x="-229.967" y="811.146"><title>MAKINGS</title>M  KINGS</text>
    </g>
  </g>
</svg>